<?xml version="1.0" standalone="no"?>
<!DOCTYPE svg PUBLIC "-//W3C//DTD SVG 20010904//EN"
 "http://www.w3.org/TR/2001/REC-SVG-20010904/DTD/svg10.dtd">
<svg version="1.0" xmlns="http://www.w3.org/2000/svg"
 width="522.000000pt" height="522.000000pt" viewBox="0 0 522.000000 522.000000"
 preserveAspectRatio="xMidYMid meet">
<metadata>
Created by potrace 1.11, written by Peter Selinger 2001-2013
</metadata>
<g transform="translate(0.000000,522.000000) scale(0.100000,-0.100000)"
fill="#000000" stroke="none">
<path d="M2424 5095 c-46 -14 -104 -45 -264 -142 -63 -39 -241 -147 -395 -240
-529 -321 -790 -480 -950 -578 -88 -53 -176 -106 -195 -117 -111 -64 -164
-117 -215 -213 -43 -80 -53 -145 -50 -305 2 -69 6 -255 10 -415 3 -159 8 -366
10 -460 2 -93 7 -300 10 -460 3 -159 8 -367 10 -461 4 -213 10 -253 47 -332
57 -122 108 -162 433 -340 356 -194 405 -222 475 -259 30 -17 75 -42 100 -55
25 -14 97 -54 160 -88 63 -35 129 -71 145 -80 497 -274 729 -396 769 -407 63
-17 185 -15 248 4 26 7 140 70 255 140 114 69 217 131 228 137 11 6 31 19 45
27 14 9 151 93 305 186 154 94 397 241 540 328 143 87 271 165 285 172 14 8
45 27 70 43 25 16 69 43 99 61 76 46 117 84 162 152 77 120 79 136 65 727 -4
179 -9 404 -11 500 -5 213 -14 637 -20 900 -5 187 -9 241 -21 285 -15 53 -62
132 -106 180 -46 51 -77 72 -228 154 -36 19 -83 45 -105 58 -22 12 -65 35 -95
51 -30 16 -117 64 -194 106 -162 90 -125 70 -356 196 -102 55 -192 105 -200
110 -8 6 -22 13 -30 17 -8 3 -61 33 -118 65 -57 32 -105 58 -107 58 -2 0 -121
65 -266 145 -176 97 -279 148 -315 155 -64 14 -176 11 -230 -5z"/>
</g>
</svg>
