<?xml version="1.0" standalone="no"?>
<!DOCTYPE svg PUBLIC "-//W3C//DTD SVG 20010904//EN"
 "http://www.w3.org/TR/2001/REC-SVG-20010904/DTD/svg10.dtd">
<svg version="1.0" xmlns="http://www.w3.org/2000/svg"
 width="1044.000000pt" height="1044.000000pt" viewBox="0 0 1044.000000 1044.000000"
 preserveAspectRatio="xMidYMid meet">
<metadata>
Created by potrace 1.11, written by Peter Selinger 2001-2013
</metadata>
<g transform="translate(0.000000,1044.000000) scale(0.100000,-0.100000)"
fill="#000000" stroke="none">
<path d="M5024 10221 c-2 -2 -21 -6 -41 -7 -21 -2 -48 -6 -60 -9 -13 -3 -33
-7 -44 -10 -20 -4 -68 -18 -109 -31 -8 -3 -17 -5 -19 -4 -2 1 -7 -2 -10 -7 -3
-4 -36 -24 -73 -43 -38 -19 -68 -38 -68 -41 0 -4 -8 -9 -17 -13 -10 -3 -27
-11 -38 -18 -11 -7 -42 -27 -70 -44 -27 -17 -63 -39 -80 -49 -16 -11 -32 -20
-35 -20 -3 0 -18 -10 -35 -21 -16 -12 -53 -34 -82 -48 -28 -15 -53 -31 -55
-34 -2 -4 -24 -18 -50 -32 -27 -13 -48 -28 -48 -31 0 -4 -12 -12 -27 -18 -16
-6 -40 -19 -55 -29 -69 -44 -152 -92 -159 -92 -5 0 -9 -3 -9 -7 0 -5 -10 -13
-23 -19 -26 -12 -330 -196 -337 -204 -3 -3 -18 -12 -35 -20 -16 -8 -32 -17
-35 -20 -10 -10 -111 -70 -118 -70 -4 0 -20 -11 -36 -25 -16 -14 -33 -25 -38
-25 -5 0 -33 -15 -61 -33 -29 -19 -92 -58 -142 -88 -49 -30 -96 -60 -103 -67
-8 -6 -17 -10 -22 -7 -5 3 -10 2 -12 -2 -4 -9 -85 -63 -94 -63 -4 0 -22 -11
-41 -26 -18 -14 -33 -22 -33 -19 0 3 -6 1 -12 -5 -20 -16 -391 -244 -546 -335
-9 -6 -39 -23 -67 -40 -27 -16 -53 -33 -56 -38 -3 -5 -10 -9 -15 -9 -5 0 -31
-15 -59 -32 -27 -18 -57 -35 -65 -39 -8 -4 -27 -15 -42 -25 -14 -9 -46 -29
-70 -43 -23 -14 -114 -69 -202 -122 -87 -54 -162 -97 -167 -97 -5 0 -9 -4 -9
-9 0 -5 -10 -13 -22 -17 -12 -3 -26 -11 -32 -16 -13 -11 -79 -52 -86 -53 -3 0
-25 -14 -50 -29 -181 -115 -249 -173 -324 -279 -52 -74 -116 -195 -131 -249
-2 -5 -4 -10 -5 -13 -1 -3 -4 -9 -5 -15 -1 -5 -3 -11 -5 -12 -3 -5 -9 -31 -15
-68 -3 -19 -8 -42 -11 -50 -3 -8 -4 -86 -4 -175 1 -162 3 -251 15 -745 3 -151
8 -358 10 -460 4 -172 8 -366 21 -910 3 -118 5 -222 5 -230 -1 -30 0 -66 3
-110 1 -25 -2 -51 -7 -57 -6 -8 -6 -13 0 -13 5 0 10 -44 10 -97 4 -299 13
-656 18 -664 4 -5 1 -9 -5 -9 -6 0 -8 -5 -5 -11 4 -6 9 -94 11 -195 14 -657
15 -673 39 -764 22 -86 103 -256 142 -298 7 -7 13 -17 13 -21 0 -4 33 -42 74
-84 80 -82 154 -134 311 -217 55 -29 108 -60 118 -68 9 -8 17 -11 17 -6 0 5 4
3 9 -4 4 -7 15 -14 23 -16 9 -1 22 -7 29 -13 8 -6 46 -27 84 -48 71 -38 103
-55 210 -114 33 -19 89 -49 125 -69 36 -19 84 -45 108 -58 166 -93 239 -133
292 -161 25 -13 81 -44 125 -69 44 -24 88 -47 98 -51 9 -3 17 -9 17 -14 0 -5
5 -9 11 -9 6 0 38 -16 72 -34 34 -19 65 -34 68 -33 4 1 15 -5 25 -14 11 -9 53
-34 94 -56 41 -23 104 -57 140 -77 36 -20 76 -42 90 -49 14 -6 27 -14 30 -17
3 -3 28 -17 55 -31 28 -14 76 -40 108 -57 131 -73 164 -90 197 -108 19 -11 38
-23 42 -29 4 -5 8 -6 8 -1 0 5 8 3 18 -6 9 -8 40 -26 67 -40 116 -59 160 -84
173 -95 7 -7 20 -13 28 -13 8 0 14 -4 14 -10 0 -5 9 -10 20 -10 11 0 20 -4 20
-8 0 -4 12 -13 28 -19 15 -6 56 -28 92 -48 36 -21 92 -52 125 -70 33 -18 80
-44 105 -57 25 -14 72 -40 105 -58 33 -18 66 -37 73 -43 6 -5 12 -6 12 -1 0 5
4 5 8 -1 4 -5 25 -20 47 -32 22 -11 58 -31 80 -44 22 -12 78 -43 125 -67 47
-25 88 -50 92 -56 5 -7 8 -7 8 -1 0 6 3 6 8 0 26 -36 250 -119 352 -130 55 -5
196 -7 230 -1 14 2 45 7 70 10 25 4 50 8 55 8 6 0 16 4 23 10 6 6 12 8 12 5 0
-11 148 56 212 96 20 12 126 76 235 142 109 65 200 122 203 125 3 3 19 12 35
20 17 8 32 17 35 20 3 3 19 13 35 23 83 49 139 84 163 100 15 9 39 23 55 29
15 7 27 15 27 19 0 3 18 14 40 24 22 10 40 22 40 27 0 4 5 8 10 8 10 0 86 45
197 117 28 18 54 33 56 33 6 0 228 136 244 150 7 5 14 10 17 10 9 0 131 75
134 82 2 5 7 8 12 8 5 0 45 23 90 51 45 27 98 60 119 72 127 74 338 203 349
214 7 7 17 13 22 13 5 0 36 18 69 40 33 22 62 40 65 40 3 0 48 27 101 60 53
33 100 60 106 60 5 0 9 3 9 8 0 4 18 16 40 26 22 11 40 23 40 28 0 4 5 8 11 8
6 0 29 13 52 29 23 16 45 29 50 30 4 0 32 17 63 36 30 19 80 50 110 68 31 17
70 41 88 52 18 11 102 62 187 113 85 52 183 111 218 133 34 21 67 39 72 39 5
0 9 4 9 8 0 5 18 17 40 27 22 10 40 21 40 24 0 3 13 12 28 19 16 6 38 21 50
32 12 11 23 20 26 20 5 0 81 76 116 116 96 111 176 287 206 449 9 53 11 282 2
318 -4 16 -3 27 3 27 6 0 7 5 3 12 -4 6 -8 84 -10 172 -10 568 -13 697 -19
706 -3 5 -2 10 4 10 6 0 7 11 3 28 -4 15 -7 123 -7 239 0 117 -2 213 -5 213
-3 0 -5 72 -5 160 0 88 -4 160 -8 160 -5 0 -5 6 0 13 8 13 7 136 -2 145 -2 3
0 11 6 19 6 7 8 13 3 13 -5 0 -10 69 -11 153 -1 83 -4 274 -7 422 -14 602 -17
738 -19 920 -2 105 -6 196 -10 202 -4 6 -3 14 3 18 6 4 8 10 5 15 -3 5 -8 91
-11 192 -2 101 -6 195 -8 210 -5 30 -33 134 -45 163 -14 35 -92 187 -101 199
-89 111 -116 142 -127 149 -8 5 -26 21 -41 35 -42 41 -147 105 -302 184 -25
13 -46 26 -48 31 -2 4 -10 7 -18 7 -8 0 -14 5 -14 11 0 5 -4 7 -10 4 -5 -3
-10 -1 -10 4 0 6 -6 11 -13 11 -7 0 -49 20 -93 45 -43 25 -83 46 -89 46 -5 1
-15 8 -20 16 -6 8 -17 15 -25 16 -9 2 -31 12 -50 23 -19 12 -66 38 -105 59
-102 55 -170 92 -257 141 -43 24 -82 44 -87 44 -5 0 -11 4 -13 8 -1 4 -28 20
-58 35 -30 16 -86 46 -125 68 -38 22 -82 45 -97 52 -16 6 -28 15 -28 19 0 4
-5 8 -11 8 -6 0 -61 28 -122 62 -62 34 -130 71 -152 83 -22 12 -112 62 -200
110 -88 48 -185 101 -215 118 -30 16 -68 37 -85 47 -16 9 -59 33 -95 52 -109
59 -173 94 -222 122 -27 14 -69 38 -95 52 -27 14 -54 31 -60 36 -7 6 -13 7
-13 2 0 -5 -4 -4 -8 1 -4 6 -32 23 -62 39 -88 47 -95 51 -100 56 -3 3 -27 16
-55 30 -27 14 -96 51 -152 82 -56 32 -107 58 -112 58 -5 0 -11 3 -13 8 -1 4
-19 15 -38 24 -19 10 -57 30 -85 45 -27 16 -90 51 -140 78 -49 27 -108 60
-130 72 -91 51 -242 123 -267 127 -15 3 -31 7 -36 10 -28 17 -304 41 -318 27z
m221 -206 c28 -4 55 -11 61 -16 6 -5 13 -7 16 -4 4 5 157 -70 268 -132 30 -17
75 -42 100 -55 25 -14 72 -40 105 -58 33 -18 66 -37 73 -43 6 -5 12 -6 12 -1
0 5 4 4 8 -1 4 -6 32 -23 62 -39 30 -16 57 -32 60 -35 3 -3 25 -16 50 -28 67
-34 171 -92 187 -104 7 -6 13 -8 13 -5 0 4 12 -1 28 -12 15 -10 52 -32 82 -48
30 -15 67 -37 83 -47 15 -10 27 -15 27 -10 0 4 7 -1 15 -11 8 -11 15 -17 15
-13 0 3 30 -11 68 -32 74 -42 160 -89 267 -146 39 -21 100 -55 137 -76 36 -22
71 -39 76 -39 6 0 12 -3 14 -7 2 -5 26 -20 53 -34 28 -14 142 -76 255 -139
211 -116 260 -143 390 -212 41 -23 80 -44 85 -48 6 -4 55 -31 110 -60 55 -29
125 -67 155 -85 30 -18 96 -54 145 -80 111 -59 245 -133 265 -145 8 -6 40 -22
70 -37 30 -15 57 -31 58 -35 2 -4 8 -8 13 -8 5 0 21 -8 36 -17 14 -10 33 -18
41 -19 8 -2 18 -7 21 -12 5 -9 41 -28 129 -70 17 -9 32 -20 32 -24 0 -4 7 -8
15 -8 9 0 28 -8 43 -19 15 -10 53 -33 85 -52 70 -41 147 -116 199 -195 21 -33
44 -66 51 -74 6 -8 11 -17 11 -20 -2 -5 0 -9 15 -50 5 -14 9 -28 10 -32 1 -4
8 -26 16 -48 18 -51 24 -138 30 -470 7 -329 13 -625 20 -930 4 -129 8 -335 10
-457 2 -122 7 -228 11 -234 5 -8 3 -9 -6 -4 -9 6 -11 4 -5 -5 4 -7 9 -105 11
-219 2 -113 6 -307 9 -431 2 -124 7 -323 9 -442 3 -120 7 -222 10 -227 4 -5 2
-12 -4 -16 -6 -4 -8 -10 -5 -15 3 -5 7 -93 9 -195 2 -102 6 -188 8 -191 3 -3
2 -20 -2 -39 -4 -19 -5 -37 -2 -40 3 -3 6 -101 7 -218 2 -189 -3 -257 -21
-307 -3 -8 -5 -16 -5 -17 3 -11 -43 -111 -77 -170 -39 -67 -178 -220 -189
-209 -3 3 -14 -4 -26 -15 -11 -10 -27 -19 -34 -19 -7 0 -13 -4 -13 -10 0 -5
-4 -10 -10 -10 -5 0 -36 -16 -67 -36 -32 -20 -69 -43 -83 -52 -14 -9 -26 -14
-26 -11 -1 2 -10 -3 -20 -12 -26 -23 -202 -129 -214 -129 -6 0 -10 -4 -10 -10
0 -5 -7 -10 -15 -10 -8 0 -15 -4 -15 -10 0 -5 -5 -10 -11 -10 -6 0 -31 -13
-56 -30 -24 -16 -46 -30 -48 -30 -2 0 -57 -33 -122 -73 -65 -40 -125 -76 -133
-80 -8 -4 -27 -15 -42 -25 -15 -9 -175 -106 -355 -215 -181 -110 -340 -208
-355 -218 -15 -10 -29 -19 -32 -19 -2 0 -28 -16 -57 -35 -30 -19 -59 -35 -65
-35 -7 0 -14 -4 -16 -8 -4 -10 -105 -72 -118 -72 -6 0 -10 -4 -10 -9 0 -5 -8
-11 -17 -15 -10 -3 -31 -15 -48 -26 -16 -11 -37 -23 -45 -27 -8 -4 -34 -20
-56 -35 -23 -15 -47 -28 -53 -28 -6 0 -11 -4 -11 -9 0 -5 -9 -13 -21 -16 -17
-6 -53 -27 -154 -93 -11 -7 -28 -15 -37 -18 -10 -4 -18 -10 -18 -14 0 -4 -8
-10 -17 -13 -19 -6 -74 -38 -83 -48 -3 -3 -83 -52 -178 -110 -207 -124 -229
-137 -264 -158 -15 -9 -110 -66 -210 -127 -397 -241 -469 -283 -498 -289 -3
-1 -24 -7 -47 -13 -106 -31 -271 -34 -373 -7 -56 14 -205 79 -220 95 -3 3 -34
21 -70 39 -36 19 -69 37 -75 42 -10 7 -124 69 -180 97 -16 9 -33 20 -37 26 -4
6 -8 8 -8 3 0 -4 -18 4 -40 18 -22 14 -41 25 -43 25 -2 0 -68 36 -146 80 -79
44 -145 80 -147 80 -3 0 -60 31 -127 69 -116 65 -155 86 -307 169 -36 19 -103
56 -150 82 -47 26 -114 63 -150 82 -36 19 -85 47 -110 60 -25 14 -72 40 -105
58 -33 18 -80 44 -105 58 -25 13 -74 41 -110 60 -36 20 -83 46 -105 58 -22 13
-60 33 -85 45 -25 13 -47 25 -50 29 -3 3 -31 19 -63 35 -32 16 -60 33 -63 37
-3 4 -14 8 -24 8 -10 0 -20 4 -22 8 -1 4 -59 39 -128 76 -69 38 -143 79 -165
91 -22 12 -69 38 -105 57 -36 20 -81 45 -101 56 -21 11 -81 44 -135 73 -55 29
-103 55 -109 59 -26 19 -456 250 -465 250 -5 0 -10 4 -10 9 0 5 -16 16 -35 25
-44 21 -153 127 -194 188 -66 99 -131 268 -117 305 3 7 2 13 -2 13 -4 0 -9 60
-10 133 -1 72 -5 222 -7 332 -3 110 -5 206 -5 213 0 6 0 18 0 25 1 6 -2 122
-5 257 -3 135 -7 323 -9 417 -1 95 -5 176 -9 179 -3 4 -2 14 3 24 5 10 7 20 4
23 -3 3 -8 115 -10 249 -8 491 -12 627 -18 636 -4 6 -2 13 4 17 6 4 7 12 1 24
-6 10 -6 23 -1 31 5 8 6 18 3 23 -3 5 -7 102 -9 215 -2 114 -6 302 -9 417 -21
913 -22 1002 -13 1064 5 29 18 79 29 110 12 31 21 62 22 69 0 6 3 12 7 12 3 0
12 16 20 35 8 19 17 35 22 35 4 0 8 5 8 11 0 22 87 122 157 179 26 22 177 114
240 147 18 9 33 20 33 25 0 4 4 8 10 8 5 0 59 31 120 69 60 39 110 67 110 64
0 -4 10 2 23 13 12 10 33 25 47 33 14 8 129 77 255 154 127 77 242 147 257
156 15 9 71 43 125 76 54 33 102 62 108 64 5 2 12 7 15 10 3 4 16 12 30 19 14
7 45 26 70 42 25 16 54 34 65 40 11 5 27 14 35 20 59 39 264 160 271 160 5 0
9 5 9 10 0 6 6 10 13 10 8 0 24 9 37 20 13 11 29 20 36 20 7 0 14 3 16 8 2 4
77 52 168 107 91 55 192 116 225 137 33 21 67 41 75 45 8 4 56 32 105 63 50
31 97 59 105 63 8 3 58 33 110 66 52 33 146 90 208 128 62 37 136 82 165 100
28 18 63 38 77 45 14 7 27 15 30 18 5 6 198 124 240 147 14 8 45 27 70 43 107
69 214 113 300 125 25 4 46 8 48 9 5 6 166 -1 217 -9z"/>
<path d="M3317 8243 c-3 -5 -23 -8 -45 -7 l-38 1 0 -3001 1 -3001 1000 -1
1001 -1 -1 168 c0 177 1 181 43 160 107 -52 333 -120 460 -137 26 -3 56 -8 67
-10 16 -4 141 -11 270 -15 24 -1 192 11 215 16 14 2 45 7 70 11 24 3 47 7 50
9 3 2 23 6 45 9 22 4 62 13 89 21 26 8 52 12 57 9 5 -3 9 -1 9 4 0 9 11 13 65
28 141 38 418 190 580 319 35 27 158 139 174 158 9 10 35 39 58 64 103 109
228 296 299 448 21 44 43 83 49 87 5 4 7 8 2 8 -4 0 -1 16 7 35 8 19 12 35 9
35 -3 0 -1 6 4 13 20 24 74 212 89 304 3 21 7 40 9 44 10 16 20 174 19 319 0
160 -4 212 -22 312 -5 26 -7 50 -4 53 3 3 1 5 -4 5 -5 0 -9 10 -10 23 -1 29
-8 56 -48 192 -2 6 -8 24 -15 40 -7 17 -20 50 -28 75 -20 59 -107 234 -144
288 -16 24 -29 46 -29 50 0 4 -13 23 -30 42 -16 19 -29 41 -30 48 0 6 -4 12
-10 12 -5 0 -15 11 -22 24 -17 32 -107 134 -182 205 -32 31 -74 71 -92 89 -18
17 -38 32 -43 32 -5 0 -11 4 -13 8 -1 4 -25 23 -53 42 -27 19 -53 39 -56 43
-16 22 -282 167 -306 167 -7 0 -13 4 -13 9 0 5 -10 11 -22 14 -13 3 -80 25
-149 49 -70 23 -131 44 -135 45 -5 1 -45 9 -89 18 -44 9 -98 19 -120 21 -113
10 -147 14 -155 19 -5 3 -11 1 -15 -5 -4 -6 -11 -7 -17 -4 -18 11 -232 5 -324
-10 -16 -2 -49 -8 -74 -11 -25 -4 -53 -9 -62 -11 -52 -11 -61 -14 -78 -19 -10
-3 -27 -8 -37 -10 -40 -8 -154 -46 -223 -75 -40 -16 -76 -30 -79 -30 -3 0 -6
482 -6 1070 0 1014 0 1070 -17 1076 -10 3 -22 2 -28 -1 -5 -3 -10 -1 -10 5 0
6 -5 8 -11 5 -16 -10 -109 -12 -109 -2 0 4 -5 5 -12 1 -16 -10 -148 -11 -148
-1 0 5 -5 5 -12 1 -15 -10 -166 -11 -200 -2 -16 3 -28 4 -28 0 0 -4 -47 -7
-105 -7 -58 0 -105 4 -105 8 0 5 -6 5 -12 0 -19 -11 -72 -10 -80 2 -5 7 -8 7
-8 0 0 -11 -141 -12 -159 -1 -6 4 -11 4 -11 -1 0 -4 -18 -8 -40 -8 -22 0 -40
4 -40 8 0 5 -5 5 -12 1 -16 -10 -148 -11 -148 -1 0 5 -5 5 -12 1 -16 -10 -278
-11 -278 -1 0 5 -5 5 -12 1 -19 -12 -78 -11 -78 1 0 7 -3 7 -8 0 -9 -12 -214
-14 -223 -1 -4 4 -9 4 -12 -1z m1917 -3915 c-1 -958 -2 -1744 -3 -1746 -2 -4
-138 70 -188 101 -24 15 -47 27 -52 27 -5 0 -11 4 -13 8 -1 4 -25 23 -53 42
-27 19 -55 40 -62 45 -6 6 -33 28 -60 50 -75 63 -235 229 -288 300 -17 22 -33
42 -37 43 -5 2 -8 8 -8 13 0 9 -38 68 -51 79 -3 3 -9 12 -12 20 -4 8 -20 38
-36 65 -197 336 -279 716 -246 1145 4 52 9 98 11 101 2 4 6 24 9 45 5 33 15
84 20 104 1 3 5 19 9 35 27 107 79 250 139 375 29 62 133 240 146 250 3 3 21
26 39 52 112 161 368 396 537 495 67 39 190 101 195 98 3 -2 4 -788 4 -1747z"/>
</g>
</svg>
