<svg xmlns="http://www.w3.org/2000/svg" viewBox="0 0 192.7 32">
  <path d="M3.6 7.5C2.6 3.8 2 2.4.9.8V.7h6.7v.1c-.6 1.3-.8 3.8-.1 7l4.1 17 4.9-16.3-.3-.9c-1-3.7-1.6-5.2-2.7-6.8V.7h6.7v.1c-.5 1.2-.9 3.8-.1 7l4.5 16.6 3.6-14.6c1.2-4.8.6-7.7-.1-9V.7h4.4l-.5.1c-1.5 2-1.8 4-2.7 7.6l-5.8 23.3h-.6l-6-22.1-6.7 22.1h-.6l-6-24.2zm30 23.9c.8-2.6 1.3-4.3 1.3-7.1V7.8c0-2.8-.4-4.4-1.3-7V.7h14.8l1.3 7.5-.3.1c-1.7-2.3-4-6.5-5.4-6.7l-5.4-.3v14.2h2.8c1.6 0 2.8-2.8 4-4.4h.3v9.5h-.3c-1-1.5-2.4-4.2-4-4.2h-2.8v14.4l5.7-.3c2.6-.1 5.1-4.3 6.9-7.5l.3.1-1.5 8.3H33.6zm21-7.6V8.3c0-3.4-.3-4.9-1.3-7.5V.7h7.5c7 0 9 4 9 8.5 0 5.6-3.3 9.7-9.5 9.7h-2.1v5c0 3.5.2 4.9 1.3 7.5v.1h-6.2v-.1c1-2.6 1.3-4.2 1.3-7.6zm4.9-22.3c-.3 0-.7 0-1.2.1V18h2c4.2 0 5.9-4.2 5.9-8.7 0-6-2.6-7.7-5.9-7.7h-.8zM73 23.8V8.3c0-3.4-.3-4.9-1.3-7.5V.7h8.2C85.7.7 88 3.6 88 8c0 3.5-1.4 6.4-4.6 7.8l3.8 9.8c1.3 3.5 2 4.4 3.7 5.5v.3h-5.6l-5.7-14.8h-2.8v7.2c0 3.5.2 4.9 1.3 7.5v.1h-6.2v-.1c.9-2.5 1.1-4.1 1.1-7.5zm5.2-22.3h-1.5v14.2h2.5c4 0 5.1-3.6 5.1-7.8 0-3.8-1.1-6.5-5.1-6.5h-1zm14.4 29.9c.8-2.6 1.3-4.3 1.3-7.1V7.8c0-2.8-.4-4.4-1.3-7V.7h14.8l1.3 7.5-.3.1c-1.7-2.3-4-6.5-5.4-6.7l-5.4-.3v14.2h2.8c1.6 0 2.8-2.8 4-4.4h.3v9.5h-.3c-1-1.5-2.4-4.2-4-4.2h-2.8v14.4l5.7-.3c2.6-.1 4.6-2.9 6.4-6.1l.3.1-1 6.9H92.6zM125.3 9c-2.2-6.2-4.4-8.1-6.6-8.1-2.2 0-3.5 1.8-3.5 4.7 0 4 2.7 5.7 5.5 7.5 3.2 2 6.4 4.2 6.4 10 0 6.3-3.9 8.9-8.4 8.9-2.2 0-4.4-.6-6.6-1.6l-.4-5.9.3-.1c2.5 6 4.7 6.9 7.6 6.9s4.3-2.7 4.3-5.7c0-4-2.3-6-4.9-7.7-3.3-2.1-6.7-4.2-6.7-9.7 0-5.8 3.6-8 7.4-8 1.9 0 3.7.5 5.2 1.2l.6 7.6h-.2zm3.6 22.4c.8-2.6 1.3-4.3 1.3-7.1V7.8c0-2.8-.4-4.4-1.3-7V.7h14.8l1.3 7.5-.3.1c-1.7-2.3-4-6.5-5.4-6.7l-5.4-.3v14.2h2.8c1.6 0 2.8-2.8 4-4.4h.3v9.5h-.3c-1-1.5-2.4-4.2-4-4.2h-2.8v14.4l5.7-.3c2.6-.1 5.1-4.3 6.9-7.5l.3.1-1.4 8.3h-16.5zm22-8.4c0 3.8.4 5.3 2.2 8.3v.1h-4.9v-.1c1.6-2.9 2-4.5 2-8.3V6.6c-.2-2.8-.7-3.9-2.5-5.8V.7h5.1l13.4 23.9-.1-15.6c0-3.7-.4-5.4-2-8.3h4.6v.1c-1.5 2.9-2 4.5-2 8.3v22.4l-1.1.1-14.9-26.5.2 17.9zm26.8 8.4c1-2.6 1.3-4.2 1.3-7.6V1.4l-3.5.2c-1.4.1-3.8 4.8-5.4 7.9l-.3-.1L171 .8h19.5l1.2 8.6-.3.1c-1.7-3.1-4-7.8-5.4-7.9l-3.5-.2v22.4c0 3.5.2 4.9 1.3 7.5v.1h-6.1z"/>
</svg>